<svg aria-hidden="true" style="position: absolute; width: 0; height: 0; overflow: hidden;" version="1.1" xmlns="http://www.w3.org/2000/svg" xmlns:xlink="http://www.w3.org/1999/xlink">
<defs>
<symbol id="icon-icon-calculator" viewBox="0 0 28 32">
<path fill="#fff" style="fill: var(--color1, #fff)" d="M25 0h-22c-1.6 0-3 1.4-3 3v26c0 1.6 1.4 3 3 3h22c1.6 0 3-1.4 3-3v-26c0-1.6-1.4-3-3-3zM8 27.2c0 0.4-0.4 0.8-0.8 0.8h-2.4c-0.4 0-0.8-0.4-0.8-0.8v-2.4c0-0.4 0.4-0.8 0.8-0.8h2.4c0.4 0 0.8 0.4 0.8 0.8v2.4zM8 19.2c0 0.4-0.4 0.8-0.8 0.8h-2.4c-0.4 0-0.8-0.4-0.8-0.8v-2.4c0-0.4 0.4-0.8 0.8-0.8h2.4c0.4 0 0.8 0.4 0.8 0.8v2.4zM16 27.2c0 0.4-0.4 0.8-0.8 0.8h-2.4c-0.4 0-0.8-0.4-0.8-0.8v-2.4c0-0.4 0.4-0.8 0.8-0.8h2.4c0.4 0 0.8 0.4 0.8 0.8v2.4zM16 19.2c0 0.4-0.4 0.8-0.8 0.8h-2.4c-0.4 0-0.8-0.4-0.8-0.8v-2.4c0-0.4 0.4-0.8 0.8-0.8h2.4c0.4 0 0.8 0.4 0.8 0.8v2.4zM24 27.2c0 0.4-0.4 0.8-0.8 0.8h-2.4c-0.4 0-0.8-0.4-0.8-0.8v-10.4c0-0.4 0.4-0.8 0.8-0.8h2.4c0.4 0 0.8 0.4 0.8 0.8v10.4zM24 11.2c0 0.4-0.4 0.8-0.8 0.8h-18.4c-0.4 0-0.8-0.4-0.8-0.8v-6.4c0-0.4 0.4-0.8 0.8-0.8h18.4c0.4 0 0.8 0.4 0.8 0.8v6.4z"></path>
</symbol>
<symbol id="icon-icon-caret-up" viewBox="0 0 20 32">
<path fill="#fff" style="fill: var(--color1, #fff)" d="M18.041 22h-16.083c-1.114 0-1.671-1.346-0.884-2.134l8.041-8.041c0.488-0.488 1.28-0.488 1.768 0l8.041 8.041c0.788 0.787 0.23 2.134-0.884 2.134z"></path>
</symbol>
<symbol id="icon-icon-clock" viewBox="0 0 32 32">
<path fill="#fff" style="fill: var(--color1, #fff)" d="M16 0.5c-8.563 0-15.5 6.938-15.5 15.5s6.938 15.5 15.5 15.5 15.5-6.938 15.5-15.5-6.938-15.5-15.5-15.5zM21.781 20.063v0l-1.25 1.563c-0.185 0.23-0.466 0.375-0.781 0.375-0.237 0-0.455-0.083-0.627-0.221l0.002 0.002-4.188-3.108c-0.574-0.462-0.938-1.164-0.938-1.952 0-0 0-0 0-0v0-9.722c0-0.552 0.448-1 1-1v0h2c0.552 0 1 0.448 1 1v0 9l3.625 2.656c0.23 0.185 0.375 0.466 0.375 0.781 0 0.238-0.083 0.456-0.221 0.627l0.002-0.002z"></path>
</symbol>
<symbol id="icon-icon-code" viewBox="0 0 40 32">
<path fill="#fff" style="fill: var(--color1, #fff)" d="M17.431 31.969l-3.813-1.106c-0.4-0.113-0.625-0.531-0.512-0.931l8.531-29.387c0.113-0.4 0.531-0.625 0.931-0.512l3.813 1.106c0.4 0.113 0.625 0.531 0.512 0.931l-8.531 29.387c-0.119 0.4-0.531 0.631-0.931 0.512zM10.306 24.956l2.719-2.9c0.287-0.306 0.269-0.794-0.050-1.075l-5.662-4.981 5.662-4.981c0.319-0.281 0.344-0.769 0.050-1.075l-2.719-2.9c-0.281-0.3-0.756-0.319-1.063-0.031l-9.006 8.438c-0.319 0.294-0.319 0.8 0 1.094l9.006 8.444c0.306 0.288 0.781 0.275 1.063-0.031zM30.756 24.994l9.006-8.444c0.319-0.294 0.319-0.8 0-1.094l-9.006-8.45c-0.3-0.281-0.775-0.269-1.063 0.031l-2.719 2.9c-0.288 0.306-0.269 0.794 0.050 1.075l5.662 4.987-5.663 4.981c-0.319 0.281-0.344 0.769-0.050 1.075l2.719 2.9c0.281 0.306 0.756 0.319 1.063 0.038z"></path>
</symbol>
<symbol id="icon-icon-credit-card" viewBox="0 0 36 32">
<path fill="#fff" style="fill: var(--color1, #fff)" d="M0 27c0 1.656 1.344 3 3 3h30c1.656 0 3-1.344 3-3v-11h-36v11zM12 22.75c0-0.413 0.338-0.75 0.75-0.75h8.5c0.413 0 0.75 0.337 0.75 0.75v2.5c0 0.413-0.337 0.75-0.75 0.75h-8.5c-0.412 0-0.75-0.337-0.75-0.75v-2.5zM4 22.75c0-0.413 0.338-0.75 0.75-0.75h4.5c0.412 0 0.75 0.337 0.75 0.75v2.5c0 0.413-0.338 0.75-0.75 0.75h-4.5c-0.412 0-0.75-0.337-0.75-0.75v-2.5zM36 5v3h-36v-3c0-1.656 1.344-3 3-3h30c1.656 0 3 1.344 3 3z"></path>
</symbol>
<symbol id="icon-icon-database" viewBox="0 0 28 32">
<path fill="#fff" style="fill: var(--color1, #fff)" d="M28 4.571v2.857c0 2.518-6.271 4.571-14 4.571s-14-2.054-14-4.571v-2.857c0-2.518 6.271-4.571 14-4.571s14 2.054 14 4.571zM28 11v6.429c0 2.518-6.271 4.571-14 4.571s-14-2.054-14-4.571v-6.429c3.008 2.071 8.513 3.036 14 3.036s10.992-0.964 14-3.036zM28 21v6.429c0 2.518-6.271 4.571-14 4.571s-14-2.054-14-4.571v-6.429c3.008 2.071 8.513 3.036 14 3.036s10.992-0.964 14-3.036z"></path>
</symbol>
<symbol id="icon-icon-envelope" viewBox="0 0 32 32">
<path fill="#fff" style="fill: var(--color1, #fff)" d="M31.394 11.925c0.244-0.194 0.606-0.012 0.606 0.294v12.781c0 1.656-1.344 3-3 3h-26c-1.656 0-3-1.344-3-3v-12.775c0-0.313 0.356-0.488 0.606-0.294 1.4 1.088 3.256 2.469 9.631 7.1 1.319 0.962 3.544 2.988 5.763 2.975 2.231 0.019 4.5-2.050 5.769-2.975 6.375-4.631 8.225-6.019 9.625-7.106zM16 20c1.45 0.025 3.538-1.825 4.587-2.587 8.294-6.019 8.925-6.544 10.837-8.044 0.363-0.281 0.575-0.719 0.575-1.181v-1.188c0-1.656-1.344-3-3-3h-26c-1.656 0-3 1.344-3 3v1.188c0 0.463 0.212 0.894 0.575 1.181 1.912 1.494 2.544 2.025 10.838 8.044 1.050 0.762 3.138 2.613 4.588 2.587z"></path>
</symbol>
<symbol id="icon-icon-exclamation" viewBox="0 0 12 32">
<path fill="#fff" style="fill: var(--color1, #fff)" d="M11 27c0 2.757-2.243 5-5 5s-5-2.243-5-5 2.243-5 5-5 5 2.243 5 5zM1.579 1.575l0.85 17c0.040 0.798 0.699 1.425 1.498 1.425h4.146c0.799 0 1.458-0.627 1.498-1.425l0.85-17c0.043-0.857-0.64-1.575-1.498-1.575h-5.846c-0.858 0-1.541 0.718-1.498 1.575z"></path>
</symbol>
<symbol id="icon-icon-exclamation-triangle" viewBox="0 0 36 32">
<path fill="#fff" style="fill: var(--color1, #fff)" d="M35.595 27.501c1.154 2-0.294 4.499-2.599 4.499h-29.993c-2.309 0-3.75-2.503-2.599-4.499l14.997-26.002c1.154-2.001 4.045-1.997 5.197 0l14.996 26.002zM18 22.125c-1.588 0-2.875 1.287-2.875 2.875s1.287 2.875 2.875 2.875 2.875-1.287 2.875-2.875-1.287-2.875-2.875-2.875zM15.27 11.791l0.464 8.5c0.022 0.398 0.351 0.709 0.749 0.709h3.034c0.398 0 0.727-0.311 0.749-0.709l0.464-8.5c0.023-0.43-0.319-0.791-0.749-0.791h-3.961c-0.43 0-0.772 0.361-0.749 0.791z"></path>
</symbol>
<symbol id="icon-icon-facebook" viewBox="0 0 28 32">
<path fill="#fff" style="fill: var(--color1, #fff)" d="M25 2h-22c-1.657 0-3 1.343-3 3v0 22c0 1.657 1.343 3 3 3v0h8.578v-9.519h-3.938v-4.481h3.938v-3.415c0-3.884 2.313-6.030 5.854-6.030 1.696 0 3.47 0.303 3.47 0.303v3.813h-1.954c-1.926 0-2.526 1.195-2.526 2.421v2.909h4.299l-0.688 4.481h-3.611v9.519h8.578c1.657 0 3-1.343 3-3v0-22c0-1.657-1.343-3-3-3v0z"></path>
</symbol>
<symbol id="icon-icon-headset" viewBox="0 0 32 32">
<path fill="#fff" style="fill: var(--color1, #fff)" d="M12 13c0-1.104-0.896-2-2-2h-1c-2.209 0-4 1.791-4 4v3c0 2.209 1.791 4 4 4h1c1.104 0 2-0.896 2-2v-7zM23 22c2.209 0 4-1.791 4-4v-3c0-2.209-1.791-4-4-4h-1c-1.104 0-2 0.896-2 2v7c0 1.104 0.896 2 2 2h1zM16 0c-8.926 0-15.714 7.427-16 16v1c0 0.552 0.448 1 1 1h1c0.553 0 1-0.448 1-1v-1c0-7.168 5.832-13 13-13s13 5.832 13 13h-0.008c0.005 0.152 0.008 10.358 0.008 10.358 0 1.459-1.183 2.642-2.642 2.642h-6.358c0-1.657-1.343-3-3-3h-2c-1.657 0-3 1.343-3 3s1.343 3 3 3h11.358c3.116 0 5.642-2.526 5.642-5.642v-10.358c-0.286-8.573-7.074-16-16-16z"></path>
</symbol>
<symbol id="icon-icon-home" viewBox="0 0 36 32">
<path fill="#fff" style="fill: var(--color1, #fff)" d="M17.523 9.266l-11.523 9.491v10.243c0 0.552 0.448 1 1 1v0l7.004-0.018c0.55-0.003 0.995-0.449 0.995-1 0 0 0 0 0 0v0-5.982c0-0.552 0.448-1 1-1v0h4c0.552 0 1 0.448 1 1v0 5.977c0 0.001 0 0.002 0 0.003 0 0.552 0.448 1 1 1 0 0 0 0 0 0v0l7.001 0.019c0.552 0 1-0.448 1-1v0-10.25l-11.521-9.484c-0.13-0.105-0.296-0.169-0.478-0.169s-0.349 0.064-0.48 0.17l0.001-0.001zM35.725 15.717l-5.225-4.307v-8.657c0-0.414-0.336-0.75-0.75-0.75v0h-3.5c-0.414 0-0.75 0.336-0.75 0.75v0 4.538l-5.596-4.604c-0.514-0.425-1.18-0.683-1.906-0.683s-1.392 0.258-1.911 0.688l0.005-0.004-15.821 13.029c-0.167 0.139-0.272 0.346-0.272 0.578 0 0.182 0.065 0.349 0.173 0.479l-0.001-0.001 1.594 1.938c0.139 0.168 0.347 0.274 0.579 0.274 0.182 0 0.349-0.065 0.479-0.173l-0.001 0.001 14.701-12.109c0.13-0.105 0.296-0.169 0.478-0.169s0.349 0.064 0.48 0.17l-0.001-0.001 14.702 12.109c0.129 0.107 0.296 0.172 0.478 0.172 0.232 0 0.44-0.105 0.577-0.271l0.001-0.001 1.594-1.938c0.106-0.128 0.171-0.295 0.171-0.476 0-0.234-0.107-0.443-0.276-0.581l-0.001-0.001z"></path>
</symbol>
<symbol id="icon-icon-linkedin" viewBox="0 0 28 32">
<path fill="#fff" style="fill: var(--color1, #fff)" d="M26 2h-24.006c-1.1 0-1.994 0.906-1.994 2.019v23.962c0 1.113 0.894 2.019 1.994 2.019h24.006c1.1 0 2-0.906 2-2.019v-23.962c0-1.112-0.9-2.019-2-2.019zM8.463 26h-4.15v-13.363h4.156v13.363zM6.388 10.813c-1.331 0-2.406-1.081-2.406-2.406s1.075-2.406 2.406-2.406c1.325 0 2.406 1.081 2.406 2.406 0 1.331-1.075 2.406-2.406 2.406zM24.019 26h-4.15v-6.5c0-1.55-0.031-3.544-2.156-3.544-2.162 0-2.494 1.688-2.494 3.431v6.613h-4.15v-13.363h3.981v1.825h0.056c0.556-1.050 1.912-2.156 3.931-2.156 4.2 0 4.981 2.769 4.981 6.369v7.325z"></path>
</symbol>
<symbol id="icon-icon-mobile" viewBox="0 0 20 32">
<path fill="#fff" style="fill: var(--color1, #fff)" d="M17 0h-14c-1.656 0-3 1.344-3 3v26c0 1.656 1.344 3 3 3h14c1.656 0 3-1.344 3-3v-26c0-1.656-1.344-3-3-3zM10 30c-1.106 0-2-0.894-2-2s0.894-2 2-2 2 0.894 2 2-0.894 2-2 2zM17 23.25c0 0.413-0.337 0.75-0.75 0.75h-12.5c-0.413 0-0.75-0.337-0.75-0.75v-19.5c0-0.413 0.337-0.75 0.75-0.75h12.5c0.413 0 0.75 0.337 0.75 0.75v19.5z"></path>
</symbol>
<symbol id="icon-icon-mobile-g" viewBox="0 0 20 32">
<path fill="#fff" style="fill: var(--color1, #fff)" d="M17 0h-14c-1.656 0-3 1.344-3 3v26c0 1.656 1.344 3 3 3h14c1.656 0 3-1.344 3-3v-26c0-1.656-1.344-3-3-3zM10 30c-1.106 0-2-0.894-2-2s0.894-2 2-2 2 0.894 2 2-0.894 2-2 2zM17 23.25c0 0.413-0.337 0.75-0.75 0.75h-12.5c-0.413 0-0.75-0.337-0.75-0.75v-19.5c0-0.413 0.337-0.75 0.75-0.75h12.5c0.413 0 0.75 0.337 0.75 0.75v19.5z"></path>
<path fill="#fff" style="fill: var(--color1, #fff)" d="M10.162 14.969v-2.050h4.7v4.194c-0.9 0.613-1.694 1.031-2.387 1.25s-1.512 0.331-2.463 0.331c-1.169 0-2.119-0.2-2.856-0.6s-1.306-0.994-1.712-1.781c-0.406-0.787-0.606-1.694-0.606-2.713 0-1.075 0.219-2.006 0.662-2.8s1.094-1.4 1.95-1.813c0.669-0.319 1.563-0.475 2.694-0.475 1.088 0 1.9 0.1 2.438 0.294 0.537 0.2 0.988 0.5 1.344 0.919 0.356 0.412 0.625 0.938 0.8 1.575l-2.931 0.525c-0.119-0.369-0.325-0.656-0.613-0.85-0.287-0.2-0.656-0.294-1.106-0.294-0.669 0-1.2 0.231-1.594 0.694s-0.594 1.194-0.594 2.2c0 1.063 0.2 1.825 0.6 2.281s0.956 0.688 1.675 0.688c0.338 0 0.662-0.050 0.975-0.15 0.306-0.1 0.662-0.269 1.063-0.506v-0.925h-2.037z"></path>
</symbol>
<symbol id="icon-icon-mobile-solid" viewBox="0 0 20 32">
<path d="M17 0h-14c-1.656 0-3 1.344-3 3v26c0 1.656 1.344 3 3 3h14c1.656 0 3-1.344 3-3v-26c0-1.656-1.344-3-3-3zM10 30c-1.106 0-2-0.894-2-2s0.894-2 2-2 2 0.894 2 2-0.894 2-2 2z"></path>
</symbol>
<symbol id="icon-icon-paypal" viewBox="0 0 36 32">
<path fill="#fff" style="fill: var(--color1, #fff)" d="M11.644 16.137c0 0.762-0.606 1.344-1.375 1.344-0.575 0-1-0.325-1-0.938 0-0.762 0.594-1.375 1.356-1.375 0.581 0 1.019 0.356 1.019 0.969zM5.031 13.106h-0.294c-0.094 0-0.188 0.063-0.2 0.169l-0.269 1.669 0.513-0.019c0.688 0 1.219-0.094 1.344-0.887 0.144-0.838-0.388-0.931-1.094-0.931zM22.781 13.106h-0.281c-0.113 0-0.188 0.063-0.2 0.169l-0.262 1.669 0.5-0.019c0.813 0 1.375-0.188 1.375-1.125-0.006-0.662-0.6-0.694-1.131-0.694zM36 5v22c0 1.656-1.344 3-3 3h-30c-1.656 0-3-1.344-3-3v-22c0-1.656 1.344-3 3-3h30c1.656 0 3 1.344 3 3zM8.019 13.463c0-1.313-1.013-1.75-2.169-1.75h-2.5c-0.156 0-0.313 0.125-0.325 0.294l-1.025 6.381c-0.019 0.125 0.075 0.25 0.2 0.25h1.188c0.169 0 0.325-0.181 0.344-0.356l0.281-1.663c0.063-0.45 0.825-0.294 1.125-0.294 1.787 0 2.881-1.063 2.881-2.863zM13.281 14.012h-1.188c-0.238 0-0.25 0.344-0.262 0.512-0.363-0.531-0.887-0.625-1.481-0.625-1.531 0-2.7 1.344-2.7 2.825 0 1.219 0.763 2.012 1.981 2.012 0.563 0 1.262-0.306 1.656-0.744-0.031 0.094-0.063 0.294-0.063 0.387 0 0.144 0.063 0.25 0.2 0.25h1.075c0.169 0 0.313-0.181 0.344-0.356l0.637-4.019c0.019-0.119-0.075-0.244-0.2-0.244zM15.813 20.131l3.981-5.787c0.031-0.031 0.031-0.063 0.031-0.106 0-0.106-0.094-0.219-0.2-0.219h-1.2c-0.106 0-0.219 0.063-0.281 0.156l-1.656 2.438-0.688-2.344c-0.050-0.137-0.188-0.25-0.344-0.25h-1.169c-0.106 0-0.2 0.113-0.2 0.219 0 0.075 1.219 3.55 1.325 3.881-0.169 0.238-1.281 1.788-1.281 1.975 0 0.113 0.094 0.2 0.2 0.2h1.2c0.113-0.006 0.219-0.069 0.281-0.163zM25.769 13.463c0-1.313-1.012-1.75-2.169-1.75h-2.481c-0.169 0-0.325 0.125-0.344 0.294l-1.012 6.375c-0.012 0.125 0.081 0.25 0.2 0.25h1.281c0.125 0 0.219-0.094 0.25-0.2l0.281-1.813c0.063-0.45 0.825-0.294 1.125-0.294 1.775 0 2.869-1.063 2.869-2.863zM31.031 14.012h-1.188c-0.238 0-0.25 0.344-0.269 0.512-0.344-0.531-0.875-0.625-1.481-0.625-1.531 0-2.7 1.344-2.7 2.825 0 1.219 0.762 2.012 1.981 2.012 0.581 0 1.281-0.306 1.656-0.744-0.019 0.094-0.063 0.294-0.063 0.387 0 0.144 0.063 0.25 0.2 0.25h1.081c0.169 0 0.313-0.181 0.344-0.356l0.637-4.019c0.019-0.119-0.075-0.244-0.2-0.244zM34 11.931c0-0.125-0.094-0.219-0.2-0.219h-1.156c-0.094 0-0.188 0.075-0.2 0.169l-1.012 6.5-0.019 0.031c0 0.113 0.094 0.219 0.219 0.219h1.031c0.156 0 0.313-0.181 0.325-0.356l1.013-6.325v-0.019zM28.375 15.169c-0.762 0-1.356 0.606-1.356 1.375 0 0.606 0.438 0.938 1.012 0.938 0.75 0 1.356-0.575 1.356-1.344 0.006-0.613-0.431-0.969-1.012-0.969z"></path>
</symbol>
<symbol id="icon-icon-phone-alt" viewBox="0 0 32 32">
<path fill="#fff" style="fill: var(--color1, #fff)" d="M31.087 22.613l-7-3c-0.173-0.076-0.376-0.12-0.588-0.12-0.467 0-0.885 0.214-1.16 0.549l-0.002 0.003-3.1 3.788c-4.885-2.34-8.734-6.189-11.014-10.935l-0.060-0.139 3.787-3.1c0.338-0.277 0.552-0.694 0.552-1.161 0-0.213-0.044-0.415-0.125-0.599l0.004 0.010-3-7c-0.239-0.538-0.768-0.906-1.384-0.906-0.119 0-0.234 0.014-0.345 0.040l0.010-0.002-6.5 1.5c-0.671 0.159-1.163 0.753-1.163 1.462 0 0 0 0 0 0v-0c0 16.031 12.994 29 29 29 0 0 0.001 0 0.001 0 0.709 0 1.303-0.492 1.459-1.152l0.002-0.010 1.5-6.5c0.023-0.1 0.037-0.215 0.037-0.333 0-0.619-0.371-1.152-0.903-1.388l-0.010-0.004z"></path>
</symbol>
<symbol id="icon-icon-quote-left" viewBox="0 0 32 32">
<path fill="#fff" style="fill: var(--color1, #fff)" d="M29 16h-5v-4c0-2.206 1.794-4 4-4h0.5c0.831 0 1.5-0.669 1.5-1.5v-3c0-0.831-0.669-1.5-1.5-1.5h-0.5c-5.525 0-10 4.475-10 10v15c0 1.656 1.344 3 3 3h8c1.656 0 3-1.344 3-3v-8c0-1.656-1.344-3-3-3zM11 16h-5v-4c0-2.206 1.794-4 4-4h0.5c0.831 0 1.5-0.669 1.5-1.5v-3c0-0.831-0.669-1.5-1.5-1.5h-0.5c-5.525 0-10 4.475-10 10v15c0 1.656 1.344 3 3 3h8c1.656 0 3-1.344 3-3v-8c0-1.656-1.344-3-3-3z"></path>
</symbol>
<symbol id="icon-icon-quote-right" viewBox="0 0 32 32">
<path fill="#fff" style="fill: var(--color1, #fff)" d="M29 2h-8c-1.656 0-3 1.344-3 3v8c0 1.656 1.344 3 3 3h5v4c0 2.206-1.794 4-4 4h-0.5c-0.831 0-1.5 0.669-1.5 1.5v3c0 0.831 0.669 1.5 1.5 1.5h0.5c5.525 0 10-4.475 10-10v-15c0-1.656-1.344-3-3-3zM11 2h-8c-1.656 0-3 1.344-3 3v8c0 1.656 1.344 3 3 3h5v4c0 2.206-1.794 4-4 4h-0.5c-0.831 0-1.5 0.669-1.5 1.5v3c0 0.831 0.669 1.5 1.5 1.5h0.5c5.525 0 10-4.475 10-10v-15c0-1.656-1.344-3-3-3z"></path>
</symbol>
<symbol id="icon-icon-search" viewBox="0 0 32 32">
<path fill="#fff" style="fill: var(--color1, #fff)" d="M31.563 27.669l-6.231-6.231c-0.281-0.281-0.663-0.438-1.063-0.438h-1.019c1.725-2.206 2.75-4.981 2.75-8 0-7.181-5.819-13-13-13s-13 5.819-13 13 5.819 13 13 13c3.019 0 5.794-1.025 8-2.75v1.019c0 0.4 0.156 0.781 0.438 1.063l6.231 6.231c0.587 0.587 1.538 0.587 2.119 0l1.769-1.769c0.587-0.587 0.587-1.538 0.006-2.125zM13 21c-4.419 0-8-3.575-8-8 0-4.419 3.575-8 8-8 4.419 0 8 3.575 8 8 0 4.419-3.575 8-8 8z"></path>
</symbol>
<symbol id="icon-icon-times" viewBox="0 0 22 32">
<path fill="#fff" style="fill: var(--color1, #fff)" d="M15.17 16l6.254-6.254c0.767-0.768 0.767-2.012 0-2.78l-1.39-1.39c-0.767-0.768-2.012-0.768-2.78 0l-6.254 6.254-6.254-6.254c-0.768-0.768-2.012-0.768-2.78 0l-1.39 1.39c-0.767 0.768-0.767 2.012 0 2.78l6.254 6.254-6.254 6.254c-0.767 0.767-0.767 2.012 0 2.78l1.39 1.39c0.767 0.767 2.013 0.767 2.78 0l6.254-6.254 6.254 6.254c0.767 0.767 2.012 0.767 2.78 0l1.39-1.39c0.767-0.767 0.767-2.012 0-2.78l-6.254-6.254z"></path>
</symbol>
<symbol id="icon-icon-twitter" viewBox="0 0 28 32">
<path fill="#fff" style="fill: var(--color1, #fff)" d="M25 2h-22c-1.656 0-3 1.344-3 3v22c0 1.656 1.344 3 3 3h22c1.656 0 3-1.344 3-3v-22c0-1.656-1.344-3-3-3zM21.944 11.925c0.012 0.175 0.012 0.356 0.012 0.531 0 5.419-4.125 11.662-11.662 11.662-2.325 0-4.481-0.675-6.294-1.837 0.331 0.038 0.65 0.050 0.987 0.050 1.919 0 3.681-0.65 5.088-1.75-1.8-0.038-3.313-1.219-3.831-2.844 0.631 0.094 1.2 0.094 1.85-0.075-1.875-0.381-3.281-2.031-3.281-4.025v-0.050c0.544 0.306 1.181 0.494 1.85 0.519-1.107-0.744-1.825-1.991-1.825-3.406 0-0.002 0-0.005 0-0.007v0c0-0.762 0.2-1.463 0.556-2.069 2.019 2.487 5.050 4.112 8.45 4.287-0.581-2.781 1.5-5.037 4-5.037 1.181 0 2.244 0.494 2.994 1.294 0.925-0.175 1.813-0.519 2.6-0.988-0.306 0.95-0.95 1.75-1.8 2.256 0.825-0.088 1.625-0.319 2.363-0.637-0.556 0.819-1.256 1.544-2.056 2.125z"></path>
</symbol>
<symbol id="icon-icon-yelp" viewBox="0 0 24 32">
<path fill="#fff" style="fill: var(--color1, #fff)" d="M2.681 15.020l6.226 3.038c1.2 0.587 1.012 2.344-0.281 2.669l-6.72 1.676c-0.104 0.027-0.224 0.043-0.347 0.043-0.732 0-1.334-0.552-1.415-1.261l-0.001-0.007c-0.051-0.422-0.080-0.91-0.080-1.405 0-1.406 0.235-2.756 0.669-4.015l-0.026 0.087c0.196-0.569 0.726-0.97 1.35-0.97 0.228 0 0.443 0.053 0.633 0.148l-0.008-0.004zM5.431 29.973c1.409 0.977 3.082 1.681 4.889 1.996l0.075 0.011c0.072 0.013 0.156 0.021 0.241 0.021 0.769 0 1.396-0.61 1.423-1.373l0-0.002 0.244-6.926c0.044-1.331-1.594-1.994-2.488-1.006l-4.638 5.15c-0.227 0.252-0.365 0.586-0.365 0.953 0 0.487 0.244 0.917 0.616 1.174l0.005 0.003zM14.515 23.103l3.676 5.875c0.258 0.406 0.705 0.671 1.214 0.671 0.347 0 0.666-0.124 0.914-0.329l-0.002 0.002c1.375-1.142 2.486-2.551 3.262-4.152l0.032-0.074c0.085-0.178 0.135-0.387 0.135-0.607 0-0.632-0.407-1.168-0.974-1.361l-0.010-0.003-6.589-2.141c-1.269-0.406-2.363 0.988-1.657 2.119zM23.786 14.839c-0.754-1.709-1.82-3.154-3.138-4.321l-0.013-0.011c-0.25-0.22-0.58-0.354-0.941-0.354-0.491 0-0.923 0.247-1.181 0.624l-0.003 0.005-3.875 5.745c-0.744 1.106 0.294 2.538 1.575 2.169l6.665-1.907c0.601-0.181 1.032-0.73 1.032-1.379 0-0.207-0.044-0.403-0.122-0.581l0.004 0.009zM3.882 1.886c-0.483 0.236-0.809 0.724-0.809 1.287 0 0.262 0.071 0.508 0.194 0.719l-0.004-0.007 6.508 11.277c0.731 1.262 2.663 0.744 2.663-0.713v-13.021c0-0.004 0-0.008 0-0.013 0-0.783-0.634-1.417-1.417-1.417-0.040 0-0.080 0.002-0.12 0.005l0.005-0c-2.588 0.211-4.973 0.883-7.14 1.933l0.119-0.052z"></path>
</symbol>
<symbol id="icon-icon-youtube" viewBox="0 0 28 32">
<path fill="#fff" style="fill: var(--color1, #fff)" d="M11.675 12.631l5.95 3.381-5.95 3.381v-6.762zM28 5v22c0 1.656-1.344 3-3 3h-22c-1.656 0-3-1.344-3-3v-22c0-1.656 1.344-3 3-3h22c1.656 0 3 1.344 3 3zM25.375 16.019s0-3.725-0.475-5.512c-0.262-0.988-1.031-1.762-2.012-2.025-1.769-0.481-8.887-0.481-8.887-0.481s-7.119 0-8.887 0.481c-0.981 0.262-1.75 1.037-2.013 2.025-0.475 1.781-0.475 5.512-0.475 5.512s0 3.725 0.475 5.512c0.263 0.988 1.031 1.731 2.013 1.994 1.769 0.475 8.887 0.475 8.887 0.475s7.119 0 8.887-0.481c0.981-0.262 1.75-1.006 2.012-1.994 0.475-1.781 0.475-5.506 0.475-5.506z"></path>
</symbol>
<symbol id="icon-paypal-brands" viewBox="0 0 24 32">
<path d="M6.963 18.494c-0.219 1.2-1.088 6.794-1.344 8.375-0.019 0.113-0.063 0.156-0.188 0.156h-4.662c-0.475 0-0.819-0.413-0.756-0.869l3.663-23.244c0.094-0.6 0.631-1.056 1.25-1.056 9.519 0 10.319-0.231 12.75 0.712 3.756 1.456 4.1 4.969 2.75 8.769-1.344 3.912-4.531 5.594-8.756 5.644-2.713 0.044-4.344-0.438-4.706 1.512zM22.319 9.5c-0.113-0.081-0.156-0.113-0.188 0.081-0.125 0.713-0.319 1.406-0.55 2.1-2.494 7.112-9.406 6.494-12.781 6.494-0.381 0-0.631 0.206-0.681 0.587-1.412 8.775-1.694 10.606-1.694 10.606-0.063 0.444 0.219 0.806 0.662 0.806h3.969c0.537 0 0.981-0.394 1.088-0.931 0.044-0.337-0.069 0.381 0.9-5.706 0.287-1.375 0.894-1.231 1.831-1.231 4.437 0 7.9-1.8 8.931-7.019 0.406-2.175 0.288-4.463-1.488-5.787z"></path>
</symbol>
<symbol id="icon-pen-fancy-solid" viewBox="0 0 32 32">
<path fill="#fff" style="fill: var(--color1, #fff)" d="M4.949 17.684c-0.599 0.204-1.061 0.666-1.261 1.251l-0.004 0.014-3.684 11.051 0.293 0.293 5.806-5.806c-0.041-0.16-0.098-0.314-0.098-0.488 0-1.104 0.896-2 2-2s2 0.896 2 2-0.896 2-2 2c-0.173 0-0.327-0.057-0.487-0.098l-5.806 5.806 0.292 0.293 11.051-3.684c0.599-0.204 1.061-0.666 1.261-1.251l0.004-0.014 2.067-5.254-6.18-6.18-5.254 2.067zM23.078 1.77l-11.444 12.468 6.116 6.116 12.468-11.444c5.307-4.692-2.484-12.406-7.139-7.139z"></path>
</symbol>
</defs>
</svg>
